# Blender v2.82 (sub 7) OBJ File: ''
# www.blender.org
o Cube_Cube.002
v -16.194851 -188.367355 132.146362
v -16.196629 -187.917542 132.149170
v -31.640324 -187.940842 54.036484
v -31.642101 -187.491028 54.039291
v -13.177319 -188.352386 131.658279
v -13.179096 -187.902573 131.661087
v -23.147648 -187.898712 52.662811
v -23.149426 -187.448898 52.665619
v -22.548805 -188.147308 92.870018
v -22.550583 -187.697495 92.872826
v -19.531273 -188.132339 92.381943
v -19.533051 -187.682526 92.384750
v -17.289394 -188.329453 125.380539
v -14.273640 -187.864670 124.895271
v -17.291172 -187.879639 125.383347
v -14.271862 -188.314484 124.892464
v -20.467567 -188.357468 127.856453
v -18.865017 -188.337265 125.635391
v -20.492229 -188.355453 127.519768
v -20.458050 -188.353226 127.183914
v -20.366074 -188.350830 126.859108
v -20.219090 -188.348358 126.555214
v -20.021564 -188.345871 126.281448
v -19.779499 -188.343445 126.046150
v -19.500252 -188.341156 125.856453
v -19.192307 -188.339081 125.718140
v -17.770473 -188.375168 132.401215
v -19.991592 -188.373947 130.798630
v -18.107159 -188.376663 132.425873
v -18.443008 -188.377777 132.391678
v -18.767826 -188.378479 132.299698
v -19.071739 -188.378769 132.152710
v -19.345509 -188.378616 131.955185
v -19.580818 -188.378036 131.713104
v -19.770512 -188.377045 131.433868
v -19.908844 -188.375656 131.125916
v -19.993370 -187.924133 130.801437
v -17.772251 -187.925354 132.404022
v -19.910622 -187.925842 131.128723
v -19.772289 -187.927231 131.436676
v -19.582596 -187.928223 131.715912
v -19.347286 -187.928802 131.957993
v -19.073517 -187.928955 132.155518
v -18.769604 -187.928665 132.302505
v -18.444786 -187.927963 132.394485
v -18.108936 -187.926849 132.428680
v -10.476900 -187.858078 126.243004
v -12.698021 -187.856857 124.640419
v -10.559652 -187.856369 125.915710
v -10.697981 -187.854996 125.607765
v -10.887682 -187.853989 125.328522
v -11.122986 -187.853409 125.086456
v -11.396755 -187.853256 124.888924
v -11.700668 -187.853546 124.741936
v -12.025486 -187.854248 124.649948
v -12.361336 -187.855362 124.615761
v -11.603477 -187.894760 131.406235
v -10.000927 -187.874557 129.185181
v -11.276192 -187.892944 131.323486
v -10.968248 -187.890869 131.185181
v -10.688997 -187.888580 130.995483
v -10.446932 -187.886154 130.760193
v -10.249407 -187.883667 130.486420
v -10.102423 -187.881195 130.182526
v -10.010443 -187.878799 129.857712
v -9.976265 -187.876572 129.521866
v -9.999149 -188.324371 129.182373
v -11.601700 -188.344574 131.403427
v -9.974487 -188.326385 129.519058
v -10.008665 -188.328613 129.854904
v -10.100645 -188.331009 130.179718
v -10.247629 -188.333481 130.483612
v -10.445154 -188.335968 130.757385
v -10.687220 -188.338394 130.992676
v -10.966471 -188.340683 131.182373
v -11.274414 -188.342758 131.320679
v -18.866795 -187.887451 125.638199
v -20.469345 -187.907654 127.859261
v -19.194084 -187.889267 125.720947
v -19.502029 -187.891342 125.859261
v -19.781277 -187.893631 126.048958
v -20.023342 -187.896057 126.284256
v -20.220867 -187.898544 126.558022
v -20.367851 -187.901016 126.861916
v -20.459827 -187.903412 127.186722
v -20.494007 -187.905640 127.522575
v -12.696243 -188.306671 124.637611
v -10.475122 -188.307892 126.240196
v -12.359558 -188.305176 124.612953
v -12.023708 -188.304062 124.647141
v -11.698891 -188.303360 124.739128
v -11.394978 -188.303070 124.886116
v -11.121208 -188.303223 125.083649
v -10.885904 -188.303802 125.325714
v -10.696203 -188.304810 125.604958
v -10.557875 -188.306183 125.912903
vt 0.375000 0.125000
vt 0.625000 0.125000
vt 0.625000 0.250000
vt 0.375000 0.250000
vt 0.625000 0.500000
vt 0.375000 0.500000
vt 0.625000 0.728467
vt 0.625000 0.750000
vt 0.625000 0.750000
vt 0.625000 0.749969
vt 0.625000 0.749878
vt 0.625000 0.749728
vt 0.625000 0.749525
vt 0.625000 0.747827
vt 0.625000 0.746958
vt 0.625000 0.745996
vt 0.625000 0.744972
vt 0.625000 0.743915
vt 0.625000 0.734552
vt 0.625000 0.733495
vt 0.625000 0.732471
vt 0.625000 0.731509
vt 0.625000 0.730641
vt 0.625000 0.728942
vt 0.625000 0.728739
vt 0.625000 0.728590
vt 0.625000 0.728498
vt 0.625000 0.728467
vt 0.375000 0.750000
vt 0.625000 1.000000
vt 0.375000 1.000000
vt 0.125001 0.728467
vt 0.375000 0.728467
vt 0.125000 0.750000
vt 0.875000 0.728467
vt 0.875000 0.750000
vt 0.875000 0.500000
vt 0.875000 0.625000
vt 0.625000 0.625000
vt 0.125000 0.500000
vt 0.375000 0.625000
vt 0.125000 0.625000
vt 0.375000 0.021533
vt 0.625000 0.021533
vt 0.625000 1.000000
vt 0.375000 1.000000
vt 0.375000 0.728467
vt 0.375000 0.021533
vt 0.625000 0.021533
vt 0.375000 0.006085
vt 0.625000 0.006085
vt 0.625000 0.015448
vt 0.375000 0.015448
vt 0.375000 0.728498
vt 0.375000 0.728590
vt 0.375000 0.728739
vt 0.375000 0.728942
vt 0.375000 0.730641
vt 0.375000 0.731510
vt 0.375000 0.732471
vt 0.375000 0.733495
vt 0.375000 0.734552
vt 0.375000 0.743915
vt 0.375000 0.744972
vt 0.375000 0.745996
vt 0.375000 0.746958
vt 0.375000 0.747827
vt 0.375000 0.749526
vt 0.375000 0.749728
vt 0.375000 0.749878
vt 0.375000 0.749969
vt 0.375000 0.750000
vt 0.875000 0.728467
vt 0.708333 0.257208
vt 0.708333 0.257300
vt 0.708333 0.257449
vt 0.708333 0.257652
vt 0.708333 0.256453
vt 0.708333 0.256164
vt 0.708333 0.255843
vt 0.708333 0.255502
vt 0.875000 0.734552
vt 0.875000 0.743915
vt 0.875000 0.744972
vt 0.875000 0.745996
vt 0.875000 0.746958
vt 0.875000 0.747827
vt 0.875000 0.748577
vt 0.875000 0.749185
vt 0.875000 0.749633
vt 0.875000 0.749908
vt 0.875000 0.750000
vt 0.625000 1.000000
vt 0.375000 1.000000
vt 0.625000 1.000000
vt 0.375000 1.000000
vt 0.625000 1.000000
vt 0.375000 1.000000
vt 0.625000 1.000000
vt 0.375000 1.000000
vt 0.625000 1.000000
vt 0.375000 1.000000
vt 0.375000 0.002173
vt 0.625000 0.002173
vt 0.625000 0.003042
vt 0.375000 0.003042
vt 0.625000 0.004003
vt 0.375000 0.004003
vt 0.625000 0.005028
vt 0.375000 0.005028
vt 0.291667 0.257208
vt 0.291667 0.257300
vt 0.291667 0.257449
vt 0.291667 0.257652
vt 0.291667 0.256453
vt 0.291667 0.256163
vt 0.291667 0.255843
vt 0.291667 0.255501
vt 0.125000 0.750000
vt 0.125000 0.749908
vt 0.125000 0.749633
vt 0.125000 0.749185
vt 0.125000 0.748576
vt 0.125000 0.747826
vt 0.125000 0.746958
vt 0.125000 0.745996
vt 0.125000 0.744972
vt 0.125000 0.743915
vt 0.125001 0.734551
vt 0.125001 0.728467
vn -0.9737 -0.0053 0.2279
vn -0.1597 0.0055 -0.9871
vn -0.0040 1.0000 0.0062
vn 0.1597 -0.0055 0.9871
vn 0.0040 -1.0000 -0.0062
vn 0.9959 0.0045 -0.0907
vn -0.9872 -0.0049 0.1597
vn 0.1597 -0.0055 0.9872
vn 0.9872 0.0049 -0.1597
vn -0.1597 0.0055 -0.9872
vn 0.0731 -0.0059 0.9973
vn -0.1013 -0.0066 0.9948
vn -0.2725 -0.0071 0.9621
vn -0.4354 -0.0073 0.9002
vn -0.5851 -0.0074 0.8109
vn -0.7170 -0.0072 0.6970
vn -0.8272 -0.0068 0.5619
vn -0.9122 -0.0062 0.4097
vn -0.9695 -0.0054 0.2451
vn 0.2452 -0.0051 0.9695
vn 0.4097 -0.0041 0.9122
vn 0.5619 -0.0029 0.8272
vn 0.6970 -0.0017 0.7171
vn 0.8110 -0.0004 0.5851
vn 0.9002 0.0008 0.4354
vn 0.9622 0.0021 0.2725
vn 0.9949 0.0033 0.1013
vn 0.9973 0.0044 -0.0730
vn -0.2451 0.0051 -0.9695
vn -0.4097 0.0041 -0.9122
vn -0.5619 0.0029 -0.8272
vn -0.6970 0.0017 -0.7170
vn -0.8110 0.0004 -0.5851
vn -0.9002 -0.0008 -0.4354
vn -0.9622 -0.0021 -0.2725
vn -0.9949 -0.0033 -0.1013
vn -0.9973 -0.0044 0.0730
vn 0.9695 0.0054 -0.2451
vn 0.9122 0.0062 -0.4097
vn 0.8272 0.0068 -0.5619
vn 0.7170 0.0072 -0.6970
vn 0.5851 0.0074 -0.8109
vn 0.4354 0.0073 -0.9002
vn 0.2725 0.0071 -0.9621
vn 0.1012 0.0066 -0.9948
vn -0.0730 0.0059 -0.9973
s off
f 9/1/1 10/2/1 4/3/1 3/4/1
f 3/4/2 4/3/2 8/5/2 7/6/2
f 14/7/3 6/8/3 57/9/3 59/10/3 60/11/3 61/12/3 62/13/3 63/14/3 64/15/3 65/16/3 66/17/3 58/18/3 47/19/3 49/20/3 50/21/3 51/22/3 52/23/3 53/24/3 54/25/3 55/26/3 56/27/3 48/28/3
f 5/29/4 6/8/4 2/30/4 1/31/4
f 13/32/5 16/33/5 5/29/5 1/34/5
f 14/7/3 15/35/3 2/36/3 6/8/3
f 8/5/3 4/37/3 10/38/3 12/39/3
f 3/40/5 7/6/5 11/41/5 9/42/5
f 7/6/6 8/5/6 12/39/6 11/41/6
f 13/43/7 15/44/7 10/2/7 9/1/7
f 1/31/8 2/30/8 38/45/8 27/46/8
f 12/39/3 10/38/3 15/35/3 14/7/3
f 9/42/5 11/41/5 16/33/5 13/32/5
f 11/41/9 12/39/9 14/7/9 16/33/9
f 16/33/10 14/7/10 48/28/10 87/47/10
f 15/44/10 13/43/10 18/48/10 77/49/10
f 28/50/7 37/51/7 78/52/7 17/53/7
f 5/29/5 16/33/5 87/47/5 89/54/5 90/55/5 91/56/5 92/57/5 93/58/5 94/59/5 95/60/5 96/61/5 88/62/5 67/63/5 69/64/5 70/65/5 71/66/5 72/67/5 73/68/5 74/69/5 75/70/5 76/71/5 68/72/5
f 6/8/4 5/29/4 68/72/4 57/9/4
f 2/36/3 15/35/3 77/73/3 79/74/3 80/75/3 81/76/3 82/77/3 83/78/3 84/79/3 85/80/3 86/81/3 78/82/3 37/83/3 39/84/3 40/85/3 41/86/3 42/87/3 43/88/3 44/89/3 45/90/3 46/91/3 38/92/3
f 88/62/9 47/19/9 58/18/9 67/63/9
f 27/46/11 38/45/11 46/93/11 29/94/11
f 29/94/12 46/93/12 45/95/12 30/96/12
f 30/96/13 45/95/13 44/97/13 31/98/13
f 31/98/14 44/97/14 43/99/14 32/100/14
f 32/100/15 43/99/15 42/101/15 33/102/15
f 33/103/16 42/104/16 41/105/16 34/106/16
f 34/106/17 41/105/17 40/107/17 35/108/17
f 35/108/18 40/107/18 39/109/18 36/110/18
f 36/110/19 39/109/19 37/51/19 28/50/19
f 57/9/20 68/72/20 76/71/20 59/10/20
f 59/10/21 76/71/21 75/70/21 60/11/21
f 60/11/22 75/70/22 74/69/22 61/12/22
f 61/12/23 74/69/23 73/68/23 62/13/23
f 62/13/24 73/68/24 72/67/24 63/14/24
f 63/14/25 72/67/25 71/66/25 64/15/25
f 64/15/26 71/66/26 70/65/26 65/16/26
f 65/16/27 70/65/27 69/64/27 66/17/27
f 66/17/28 69/64/28 67/63/28 58/18/28
f 77/49/29 18/48/29 26/111/29 79/74/29
f 79/74/30 26/111/30 25/112/30 80/75/30
f 80/75/31 25/112/31 24/113/31 81/76/31
f 81/76/32 24/113/32 23/114/32 82/77/32
f 82/77/33 23/114/33 22/115/33 83/78/33
f 83/78/34 22/115/34 21/116/34 84/79/34
f 84/79/35 21/116/35 20/117/35 85/80/35
f 85/80/36 20/117/36 19/118/36 86/81/36
f 86/81/37 19/118/37 17/53/37 78/52/37
f 47/19/38 88/62/38 96/61/38 49/20/38
f 49/20/39 96/61/39 95/60/39 50/21/39
f 50/21/40 95/60/40 94/59/40 51/22/40
f 51/22/41 94/59/41 93/58/41 52/23/41
f 52/23/42 93/58/42 92/57/42 53/24/42
f 53/24/43 92/57/43 91/56/43 54/25/43
f 54/25/44 91/56/44 90/55/44 55/26/44
f 55/26/45 90/55/45 89/54/45 56/27/45
f 56/27/46 89/54/46 87/47/46 48/28/46
f 13/32/5 1/34/5 27/119/5 29/120/5 30/121/5 31/122/5 32/123/5 33/124/5 34/125/5 35/126/5 36/127/5 28/128/5 17/129/5 19/118/5 20/117/5 21/116/5 22/115/5 23/114/5 24/113/5 25/112/5 26/111/5 18/130/5
